<?xml version="1.0" encoding="UTF-8"?>
<svg version="1.1" xmlns="http://www.w3.org/2000/svg" width="370" height="80">
<path d="M0 0 C1.20479658 3.61438975 1.14904349 6.92641091 1.125 10.6875 C1.12306641 11.40486328 1.12113281 12.12222656 1.11914062 12.86132812 C1.07989964 17.66180917 0.78840668 22.26955992 0 27 C0.56227295 26.83467773 1.1245459 26.66935547 1.70385742 26.49902344 C5.86952987 25.59369282 10.07770582 26.05764183 14.3125 26.25 C15.23740234 26.27707031 16.16230469 26.30414062 17.11523438 26.33203125 C22.74475858 26.58009841 27.07286235 27.18079788 32 30 C33.48828125 31.9375 33.48828125 31.9375 34.3125 34 C35.41161319 36.62593559 36.39137852 38.58706778 38 41 C38.4640625 39.7625 38.4640625 39.7625 38.9375 38.5 C41.89677108 32.62333432 47.78509109 27.67217788 53.75 25 C59.22901555 23.29885404 65.35386559 23.23821996 71 24 C74.19171319 25.80257377 75.59306126 27.62331132 77.0625 30.9375 C78.08426069 33.21343905 78.94221797 34.93369973 80.58984375 36.82421875 C83.60403743 41.47492756 82.65105355 47.69944134 82 53 C80.71029673 56.12505024 79.79431979 56.87388712 77 59 C73.6875 59.875 73.6875 59.875 71 60 C71 60.99 71 61.98 71 63 C63.92747459 65.24206347 52.98841236 65.47751187 46.25 62.3125 C40.9792374 58.56214969 38.73419251 55.21418983 37 49 C35.8553125 50.546875 35.8553125 50.546875 34.6875 52.125 C28.19610305 59.6906234 18.71583013 63.44396749 8.98046875 64.25 C2.88273215 64.48594628 2.88273215 64.48594628 0 64 C-1.36076444 62.69467411 -2.69661808 61.36262655 -4 60 C-5.32 60 -6.64 60 -8 60 C-8.66 58.02 -9.32 56.04 -10 54 C-10.7425 54.7425 -11.485 55.485 -12.25 56.25 C-18.92541144 61.80495231 -28.5038959 63.72593213 -37 64 C-37.66 63.34 -38.32 62.68 -39 62 C-39.08636719 62.79664063 -39.17273438 63.59328125 -39.26171875 64.4140625 C-40.14602727 71.08288455 -40.84873469 75.47693778 -46 80 C-46.99 80 -47.98 80 -49 80 C-48.99555878 79.38691986 -48.99111755 78.77383972 -48.98654175 78.1421814 C-48.94223109 71.75057307 -48.9121014 65.35900852 -48.89013672 58.96728516 C-48.88009076 56.58315254 -48.86645161 54.1990322 -48.84912109 51.81494141 C-48.82481136 48.38440922 -48.81350266 44.95404023 -48.8046875 41.5234375 C-48.79436493 40.46071625 -48.78404236 39.397995 -48.77340698 38.30307007 C-48.77262674 33.13499906 -48.9070365 28.83047286 -51 24 C-36.68486407 23.22736898 -23.37427073 25.80286372 -12.2890625 35.49609375 C-11 37 -11 37 -10 40 C-9.96036133 38.93040039 -9.92072266 37.86080078 -9.87988281 36.75878906 C-9.7275532 32.78453558 -9.55015953 28.8117264 -9.36523438 24.83886719 C-9.28874315 23.12040759 -9.2190212 21.40163262 -9.15625 19.68261719 C-9.06474569 17.20914121 -8.94881363 14.73782777 -8.828125 12.265625 C-8.80502258 11.49881409 -8.78192017 10.73200317 -8.75811768 9.94195557 C-8.56714081 6.47968929 -8.23737692 4.33155573 -6.19824219 1.48339844 C-4 0 -4 0 0 0 Z M0 36 C-0.02730408 37.56240032 -0.04653226 39.1249427 -0.0625 40.6875 C-0.07410156 41.55761719 -0.08570313 42.42773438 -0.09765625 43.32421875 C-0.00043483 45.98808557 0.40635667 48.40573189 1 51 C9.28286802 50.69036007 16.56210369 49.55031705 23.1875 44.25 C25.78073972 42.46155881 27.93428741 42.79097414 31 43 C31.33 42.01 31.66 41.02 32 40 C16.23961349 35.52336771 16.23961349 35.52336771 0 36 Z M49 47 C50.3089572 50.12197478 50.3089572 50.12197478 53 52 C58.0111158 52.54978069 61.89696493 52.56154513 66.4375 50.25 C68.69639251 48.26658219 70.45719609 46.57133985 72 44 C72.2133948 41.68657639 72.2133948 41.68657639 69.8125 39.375 C67.29308435 36.88909305 67.29308435 36.88909305 64.6875 36.4375 C57.61204469 37.91840925 53.195914 41.23061825 49 47 Z M-40 40 C-40 44.95 -40 49.9 -40 55 C-32.99397342 54.37446191 -26.46832005 53.65344406 -21.5 48.3125 C-20.7575 47.1678125 -20.7575 47.1678125 -20 46 C-21.17458586 42.91323202 -21.17458586 42.91323202 -23.84765625 41.171875 C-29.32709348 40.12817267 -34.4199988 39.8228571 -40 40 Z " fill="#010101" transform="translate(184,0)"/>
<path d="M0 0 C3.47602505 5.21403757 4.11165974 8.7470548 4 15 C4.3403125 16.175625 4.3403125 16.175625 4.6875 17.375 C5.31383359 22.63620217 2.86852222 27.69721667 0 32 C-0.99 31.67 -1.98 31.34 -3 31 C-3 29.68 -3 28.36 -3 27 C-3.99 27 -4.98 27 -6 27 C-7.17571451 23.32589215 -7.07366746 19.83070817 -7 16 C-13.05860083 16.87872836 -16.72839854 17.42328415 -21 22 C-24.25 22.25 -24.25 22.25 -27 22 C-24.59299792 27.75852396 -20.2019694 29.20691955 -14.8125 31.5625 C-13.15199565 32.31303241 -11.4918359 33.06432771 -9.83203125 33.81640625 C-9.02717285 34.17621582 -8.22231445 34.53602539 -7.39306641 34.90673828 C-3.8798596 36.51173115 -0.44247258 38.24898454 3 40 C3 40.66 3 41.32 3 42 C3.99 42 4.98 42 6 42 C8.39511469 37.65885463 8.02977875 34.76272672 7 30 C7.59425781 30.17660156 8.18851563 30.35320313 8.80078125 30.53515625 C13.20235371 31.45928111 15.87007556 31.72078631 19.76171875 29.23828125 C21.61513079 27.63868884 23.44944548 26.0167442 25.265625 24.375 C29.45777024 20.73382242 34.44405665 17.12108051 40.1796875 16.92578125 C42.125 17.1875 42.125 17.1875 45 18 C47.25611507 25.88707995 46.97194783 33.02572783 43 40.25 C42.02458524 41.84859641 41.03309481 43.43805904 40 45 C32.25 45.125 32.25 45.125 30 44 C24.27499445 43.35922099 24.27499445 43.35922099 19.5 46 C19.005 46.66 18.51 47.32 18 48 C18.33 48.33 18.66 48.66 19 49 C20.5069706 48.98012209 22.0131555 48.89150919 23.515625 48.7734375 C24.43730469 48.7115625 25.35898438 48.6496875 26.30859375 48.5859375 C28.25456388 48.44638586 30.19992808 48.29808275 32.14453125 48.140625 C40.96944864 47.57602667 40.96944864 47.57602667 45 51 C48.19472087 54.36740848 49 55.23853632 49 60 C45.25151127 60.37148415 41.50113623 60.71886754 37.75 61.0625 C36.70585938 61.16626953 35.66171875 61.27003906 34.5859375 61.37695312 C15.72715992 63.06493013 15.72715992 63.06493013 9.375 59.25 C6.90267802 56.90780023 5.90462789 55.2566604 5 52 C4.49210937 52.39832031 3.98421875 52.79664063 3.4609375 53.20703125 C-4.36352392 59.22922908 -10.11198483 61.48976434 -20 62 C-20 63.98 -20 65.96 -20 68 C-23.88410563 67.73517462 -25.5462048 67.46605993 -28.3125 64.625 C-31.31814096 59.94955851 -31.72531076 55.43002918 -31 50 C-29.1875 47.4375 -29.1875 47.4375 -27 46 C-26.01 46 -25.02 46 -24 46 C-24 46.66 -24 47.32 -24 48 C-22.02 47.505 -22.02 47.505 -20 47 C-19.67 48.65 -19.34 50.3 -19 52 C-17.20414803 51.4083899 -15.41340371 50.80125808 -13.625 50.1875 C-12.62726563 49.85105469 -11.62953125 49.51460937 -10.6015625 49.16796875 C-7.7154291 48.1493425 -7.7154291 48.1493425 -6 45 C-7.794375 44.7215625 -7.794375 44.7215625 -9.625 44.4375 C-18.62326412 42.43788575 -27.90957176 37.96979488 -34 31 C-36.94990346 25.95596713 -37.73949255 20.73106724 -37 15 C-35.21209613 11.67435166 -32.90810261 9.48897833 -29.5625 7.6875 C-23.23985635 5.99118097 -17.31103153 5.96732806 -10.83398438 6.47851562 C-7.91218281 6.58118102 -5.68344815 6.57683439 -3.39111328 4.64208984 C-1.82158094 2.82035192 -1.82158094 2.82035192 0 0 Z M32.375 35.5 C31.92125 35.995 31.4675 36.49 31 37 C32.32 37.33 33.64 37.66 35 38 C35.33 36.68 35.66 35.36 36 34 C33.87635519 33.77390663 33.87635519 33.77390663 32.375 35.5 Z " fill="#000000" transform="translate(82,3)"/>
<path d="M0 0 C2.71438155 1.70905505 2.91995707 4.05137006 3.6875 7.0625 C3.8009375 7.73023438 3.914375 8.39796875 4.03125 9.0859375 C4.85920267 11.57965209 5.87388144 12.36805087 8 13.875 C8.59425781 14.31457031 9.18851562 14.75414062 9.80078125 15.20703125 C11.6381408 16.21175473 11.6381408 16.21175473 13.6328125 15.9765625 C16.46986432 14.71445199 18.12300821 12.8743568 20.25 10.625 C24.52379518 6.13499258 27.08071348 3.88180258 33.375 3.4375 C34.36886719 3.36273437 35.36273438 3.28796875 36.38671875 3.2109375 C37.52560547 3.13746094 37.52560547 3.13746094 38.6875 3.0625 C39.47265625 5.2890625 39.47265625 5.2890625 39.6875 8.0625 C37.80859375 10.2734375 37.80859375 10.2734375 35.125 12.4375 C30.81505715 16.05639716 27.22085556 19.69229707 23.6875 24.0625 C25.4163805 25.47951589 27.14561746 26.89609686 28.875 28.3125 C29.83792969 29.10140625 30.80085938 29.8903125 31.79296875 30.703125 C34.61279991 33.07646152 34.61279991 33.07646152 37.53125 34.96875 C39.6875 37.0625 39.6875 37.0625 40.17578125 40.078125 C40.08876953 41.67914063 40.08876953 41.67914063 40 43.3125 C39.95488281 44.39015625 39.90976562 45.4678125 39.86328125 46.578125 C39.77626953 47.80789062 39.77626953 47.80789062 39.6875 49.0625 C36.38888169 47.57887487 33.84187306 45.67907311 31.0625 43.375 C22.23972529 35.58012328 22.23972529 35.58012328 11.6875 31.0625 C11.43742187 31.61550781 11.18734375 32.16851562 10.9296875 32.73828125 C9.46470788 35.47935947 7.72823686 37.80291726 5.8125 40.25 C5.13445312 41.13042969 4.45640625 42.01085938 3.7578125 42.91796875 C1.6875 45.0625 1.6875 45.0625 -0.2734375 46.078125 C-3.35821105 46.05448689 -4.73806925 44.57341989 -7.0625 42.625 C-7.86171875 41.96628906 -8.6609375 41.30757812 -9.484375 40.62890625 C-10.08765625 40.11199219 -10.6909375 39.59507813 -11.3125 39.0625 C-10.16861961 37.91861961 -9.02441726 36.77505995 -7.87890625 35.6328125 C-6.75658974 34.5076972 -5.64005048 33.37680749 -4.52734375 32.2421875 C-3.92019531 31.62601563 -3.31304687 31.00984375 -2.6875 30.375 C-1.83285156 29.50294922 -1.83285156 29.50294922 -0.9609375 28.61328125 C0.6875 27.0625 0.6875 27.0625 3.6875 25.0625 C2.10336975 21.25346771 -0.3099016 18.73279273 -3.1875 15.8125 C-4.48300781 14.47445312 -4.48300781 14.47445312 -5.8046875 13.109375 C-8.28945619 10.64095508 -8.28945619 10.64095508 -12.3125 11.0625 C-11.76526317 7.68787285 -11.2576 5.98015 -9.3125 3.0625 C-6.16806918 1.43205439 -3.57650995 0.09666243 0 0 Z " fill="#181818" transform="translate(276.3125,17.9375)"/>
<path d="M0 0 C0.05384521 2.29141286 0.09272087 4.58318188 0.125 6.875 C0.14820313 8.15117187 0.17140625 9.42734375 0.1953125 10.7421875 C0 14 0 14 -2 16 C-4.625 15.625 -4.625 15.625 -7 15 C-7 13.35 -7 11.7 -7 10 C-5.68 9.67 -4.36 9.34 -3 9 C-3 8.01 -3 7.02 -3 6 C-5.64 6 -8.28 6 -11 6 C-10.97679687 6.69867188 -10.95359375 7.39734375 -10.9296875 8.1171875 C-10.91164063 9.02726563 -10.89359375 9.93734375 -10.875 10.875 C-10.85179687 11.77992187 -10.82859375 12.68484375 -10.8046875 13.6171875 C-11 16 -11 16 -13 18 C-15.125 17.625 -15.125 17.625 -17 17 C-17.33 15.35 -17.66 13.7 -18 12 C-16.68 11.67 -15.36 11.34 -14 11 C-14.01160156 10.36191406 -14.02320313 9.72382813 -14.03515625 9.06640625 C-14.04869141 7.82697266 -14.04869141 7.82697266 -14.0625 6.5625 C-14.07410156 5.73878906 -14.08570313 4.91507813 -14.09765625 4.06640625 C-14 2 -14 2 -13 1 C-8.60335754 0.34050363 -4.44758795 -0.05442852 0 0 Z " fill="#979897" transform="translate(352,5)"/>
<path d="M0 0 C0 3.63 0 7.26 0 11 C-1.65 11 -3.3 11 -5 11 C-4.67 9.02 -4.34 7.04 -4 5 C-4.99 5 -5.98 5 -7 5 C-7 6.98 -7 8.96 -7 11 C-8.98 11.99 -8.98 11.99 -11 13 C-11.66 11.68 -12.32 10.36 -13 9 C-12.34 8.34 -11.68 7.68 -11 7 C-10.60235737 5.01178687 -10.26224651 3.01055661 -10 1 C-6.52674819 -0.1577506 -3.63932552 -0.06866652 0 0 Z " fill="#555454" transform="translate(368,0)"/>
</svg>
